<svg xmlns="http://www.w3.org/2000/svg" viewBox="0 0 260 260" width="260" height="260">
  <defs>
    <path id="leaf" d="M0 0C24-34 78-38 108 0C78 38 24 34 0 0Z"/>
    <g id="hib">
      <g fill="#ff2e63">
        <ellipse cx="0" cy="-19" rx="14" ry="20"/>
        <ellipse cx="0" cy="-19" rx="14" ry="20" transform="rotate(72)"/>
        <ellipse cx="0" cy="-19" rx="14" ry="20" transform="rotate(144)"/>
        <ellipse cx="0" cy="-19" rx="14" ry="20" transform="rotate(216)"/>
        <ellipse cx="0" cy="-19" rx="14" ry="20" transform="rotate(288)"/>
      </g>
      <circle r="7" fill="#c4134a"/>
      <path d="M0 0L12-26" stroke="#ffb627" stroke-width="3" stroke-linecap="round"/>
      <circle cx="12" cy="-27" r="3.5" fill="#ffb627"/>
    </g>
    <g id="bloom">
      <g fill="#ffb627">
        <circle cx="0" cy="-10" r="9"/>
        <circle cx="0" cy="-10" r="9" transform="rotate(72)"/>
        <circle cx="0" cy="-10" r="9" transform="rotate(144)"/>
        <circle cx="0" cy="-10" r="9" transform="rotate(216)"/>
        <circle cx="0" cy="-10" r="9" transform="rotate(288)"/>
      </g>
      <circle r="5" fill="#ff2e63"/>
    </g>
  </defs>
  <g fill="#0b5d4b">
    <use href="#leaf" transform="translate(70 120) rotate(-35)"/>
    <use href="#leaf" transform="translate(70 120) rotate(40) scale(0.85)"/>
    <use href="#leaf" transform="translate(200 40) rotate(150) scale(0.8)"/>
    <use href="#leaf" transform="translate(190 215) rotate(-160) scale(0.9)"/>
  </g>
  <g fill="none" stroke="#0fa39a" stroke-width="2.5" stroke-linecap="round">
    <path d="M70 120l82-57" />
    <path d="M70 120l70 59" />
  </g>
  <use href="#hib" transform="translate(68 118) scale(1.15)"/>
  <use href="#hib" transform="translate(195 150) rotate(30)"/>
  <use href="#bloom" transform="translate(150 45)"/>
  <use href="#bloom" transform="translate(30 220) scale(0.9)"/>
  <use href="#bloom" transform="translate(235 245) scale(0.75)"/>
  <circle cx="115" cy="210" r="4" fill="#fff3e2"/>
  <circle cx="240" cy="95" r="3" fill="#fff3e2"/>
  <circle cx="20" cy="40" r="3.5" fill="#fff3e2"/>
</svg>
